<svg width="167" height="167" viewBox="0 0 167 167" fill="none" xmlns="http://www.w3.org/2000/svg">
<g clip-path="url(#clip0_10_351)">
<path d="M83.7953 158.994C125.401 158.994 159.129 125.255 159.129 83.6356C159.129 42.0164 125.401 8.27734 83.7953 8.27734C42.1896 8.27734 8.46149 42.0164 8.46149 83.6356C8.46149 125.255 42.1896 158.994 83.7953 158.994Z" stroke="#194DD2" stroke-miterlimit="10"/>
<path d="M83.8194 153.628C122.453 153.628 153.771 122.3 153.771 83.6537C153.771 45.0077 122.453 13.679 83.8194 13.679C45.186 13.679 13.8674 45.0077 13.8674 83.6537C13.8674 122.3 45.186 153.628 83.8194 153.628Z" stroke="#194DD2" stroke-miterlimit="10"/>
<path d="M83.8375 148.275C119.502 148.275 148.414 119.354 148.414 83.6778C148.414 48.0018 119.502 19.0807 83.8375 19.0807C48.1731 19.0807 19.2614 48.0018 19.2614 83.6778C19.2614 119.354 48.1731 148.275 83.8375 148.275Z" stroke="#194DD2" stroke-miterlimit="10"/>
<path d="M83.8616 142.915C116.557 142.915 143.062 116.402 143.062 83.6959C143.062 50.9898 116.557 24.4763 83.8616 24.4763C51.1661 24.4763 24.6613 50.9898 24.6613 83.6959C24.6613 116.402 51.1661 142.915 83.8616 142.915Z" stroke="#194DD2" stroke-miterlimit="10"/>
<path d="M83.8797 137.568C113.609 137.568 137.71 113.459 137.71 83.72C137.71 53.9806 113.609 29.872 83.8797 29.872C54.1499 29.872 30.0491 53.9806 30.0491 83.72C30.0491 113.459 54.1499 137.568 83.8797 137.568Z" stroke="#194DD2" stroke-miterlimit="10"/>
<path d="M83.9038 132.215C110.668 132.215 132.365 110.511 132.365 83.7381C132.365 56.9653 110.668 35.2616 83.9038 35.2616C57.1397 35.2616 35.4431 56.9653 35.4431 83.7381C35.4431 110.511 57.1397 132.215 83.9038 132.215Z" stroke="#194DD2" stroke-miterlimit="10"/>
<path d="M83.9279 126.879C107.733 126.879 127.031 107.575 127.031 83.7622C127.031 59.9494 107.733 40.6452 83.9279 40.6452C60.1228 40.6452 40.8249 59.9494 40.8249 83.7622C40.8249 107.575 60.1228 126.879 83.9279 126.879Z" stroke="#194DD2" stroke-miterlimit="10"/>
<path d="M83.946 121.55C104.795 121.55 121.697 104.643 121.697 83.7863C121.697 62.9301 104.795 46.0228 83.946 46.0228C63.0965 46.0228 46.1947 62.9301 46.1947 83.7863C46.1947 104.643 63.0965 121.55 83.946 121.55Z" stroke="#194DD2" stroke-miterlimit="10"/>
<path d="M83.9701 116.233C101.874 116.233 116.388 101.714 116.388 83.8044C116.388 65.8948 101.874 51.3763 83.9701 51.3763C66.0663 51.3763 51.5524 65.8948 51.5524 83.8044C51.5524 101.714 66.0663 116.233 83.9701 116.233Z" stroke="#194DD2" stroke-miterlimit="10"/>
<path d="M83.9882 110.945C98.9596 110.945 111.096 98.8048 111.096 83.8285C111.096 68.8523 98.9596 56.7116 83.9882 56.7116C69.0168 56.7116 56.88 68.8523 56.88 83.8285C56.88 98.8048 69.0168 110.945 83.9882 110.945Z" stroke="#194DD2" stroke-miterlimit="10"/>
<path d="M84.0122 105.688C96.0712 105.688 105.847 95.9096 105.847 83.8466C105.847 71.7837 96.0712 62.0048 84.0122 62.0048C71.9532 62.0048 62.1775 71.7837 62.1775 83.8466C62.1775 95.9096 71.9532 105.688 84.0122 105.688Z" stroke="#194DD2" stroke-miterlimit="10"/>
<path d="M84.0304 100.516C93.2202 100.516 100.67 93.0636 100.67 83.8708C100.67 74.6779 93.2202 67.2256 84.0304 67.2256C74.8405 67.2256 67.3906 74.6779 67.3906 83.8708C67.3906 93.0636 74.8405 100.516 84.0304 100.516Z" stroke="#194DD2" stroke-miterlimit="10"/>
<path d="M84.0545 95.5181C90.4751 95.5181 95.68 90.3115 95.68 83.8888C95.68 77.4662 90.4751 72.2596 84.0545 72.2596C77.6339 72.2596 72.429 77.4662 72.429 83.8888C72.429 90.3115 77.6339 95.5181 84.0545 95.5181Z" stroke="#194DD2" stroke-miterlimit="10"/>
<path d="M84.0785 91.0991C88.0461 91.0991 91.2624 87.8818 91.2624 83.913C91.2624 79.9442 88.0461 76.7268 84.0785 76.7268C80.111 76.7268 76.8947 79.9442 76.8947 83.913C76.8947 87.8818 80.111 91.0991 84.0785 91.0991Z" stroke="#194DD2" stroke-miterlimit="10"/>
<path d="M84.0966 89.0614C86.9258 89.0614 89.2193 86.7672 89.2193 83.937C89.2193 81.1069 86.9258 78.8127 84.0966 78.8127C81.2674 78.8127 78.9739 81.1069 78.9739 83.937C78.9739 86.7672 81.2674 89.0614 84.0966 89.0614Z" stroke="#194DD2" stroke-miterlimit="10"/>
<path d="M21.3948 138.111L23.7633 136.001L24.2876 136.585L21.9191 138.695L22.8713 139.769L22.2807 140.293L19.8158 137.52L20.4064 136.995L21.3948 138.111Z" fill="#194DD2"/>
<path d="M20.9488 133.897L19.406 131.949L20.0267 131.455L22.0517 134.011L18.954 136.471L17.0194 134.029L17.6341 133.541L19.0866 135.374L19.8399 134.777C19.4723 134.632 19.177 134.307 18.8937 133.951L18.5321 133.499L19.1468 133.01L19.5084 133.463C19.9604 134.029 20.0991 134.132 20.4546 134.288L20.9488 133.897Z" fill="#194DD2"/>
<path d="M15.6694 130.81L18.2609 128.983L18.7129 129.628L16.1214 131.455L16.9471 132.631L16.3022 133.083L14.1628 130.05L14.8076 129.598L15.6694 130.81Z" fill="#194DD2"/>
<path d="M15.6935 126.572L14.3797 124.462L15.0547 124.04L16.7783 126.807L13.4215 128.899L11.7762 126.252L12.4451 125.836L13.6806 127.82L14.4942 127.313C14.1447 127.126 13.8855 126.771 13.6445 126.385L13.3371 125.891L14.0061 125.475L14.3134 125.969C14.6991 126.584 14.8257 126.704 15.1632 126.897L15.6935 126.572Z" fill="#194DD2"/>
<path d="M11.8123 120.64C12.0052 120.32 11.9027 120.061 11.8063 119.886L11.6737 119.645L12.421 119.241L12.5838 119.542C12.7766 119.904 12.9273 120.248 12.5777 120.857L11.9931 121.863L12.0172 121.912C12.3065 122.454 12.4451 122.575 12.7404 122.78L13.9639 122.123L14.3435 122.828L10.8601 124.703L9.65477 122.454C9.31125 121.815 9.51013 121.122 10.1128 120.796C10.6432 120.513 11.1313 120.627 11.5592 121.05L11.8123 120.64ZM11.0228 121.719C10.9083 121.508 10.6974 121.393 10.4744 121.508C10.167 121.676 10.2816 121.96 10.4141 122.201L11.1795 123.618L12.0534 123.147C11.7581 122.955 11.5231 122.641 11.3242 122.279L11.0228 121.719Z" fill="#194DD2"/>
<path d="M11.4628 117.197L11.8063 117.957L8.20234 119.585L7.85882 118.825L10.167 117.782L7.10548 117.161L6.68964 116.245L8.8472 116.703L9.49808 115.768C9.69696 115.419 9.62464 115.202 9.54629 115.021L9.43179 114.768L10.2032 114.418L10.3418 114.731C10.5106 115.105 10.5769 115.383 10.2454 116.04L9.64875 116.914L11.4628 117.197Z" fill="#194DD2"/>
<path d="M9.70903 113.128L6.03274 114.581L5.74948 113.857L9.42577 112.404L9.70903 113.128Z" fill="#194DD2"/>
<path d="M4.86959 111.548L6.70773 108.401L4.1042 109.282L3.85107 108.534L7.59366 107.268L7.84678 108.016L6.12314 110.927L8.55793 110.101L8.81105 110.849L5.62293 111.928L5.189 112.483L4.86959 111.548Z" fill="#194DD2"/>
<path d="M6.07491 101.571L6.30995 102.56L2.86267 105.152L2.65777 104.29L5.41197 102.258L2.03099 101.661L1.82608 100.793L6.07491 101.571Z" fill="#194DD2"/>
<path d="M5.47223 98.8098L1.58501 99.5151L1.44037 98.7133L4.55015 98.1526L4.17649 96.0848L4.95996 95.9401L5.47223 98.8098Z" fill="#194DD2"/>
<path d="M0.656897 94.3546L0.554443 93.5106L4.31511 90.9001L4.41756 91.7562L3.8631 92.136L3.92337 92.6063C4.04391 93.5769 4.54412 94.5354 4.72492 94.644L4.77314 94.662L4.87559 95.4819L1.12095 94.029L0.656897 94.3546ZM3.19414 92.6002L1.8321 93.5407L3.74257 94.2521C3.58588 94.017 3.30865 93.5106 3.20619 92.7027L3.19414 92.6002Z" fill="#194DD2"/>
<path d="M0.337501 90.8701L0.186834 88.4224C0.114513 87.2348 0.753344 86.3847 2.0069 86.3064C3.23635 86.234 4.05598 86.9755 4.13433 88.1813L4.23075 89.7909L1.07276 89.9838L1.10289 90.4722L0.337501 90.8701ZM1.01852 89.1579L3.38701 89.0132L3.3388 88.2295C3.29059 87.4699 2.83256 87.06 2.07319 87.1082C1.30177 87.1564 0.928118 87.6146 0.970305 88.3742L1.01852 89.1579Z" fill="#194DD2"/>
<path d="M4.00174 84.8052L0.0482167 84.8535L0.0361633 84.0758L3.98968 84.0275L4.00174 84.8052Z" fill="#194DD2"/>
<path d="M0.837712 77.7155L4.15843 77.8542L4.12227 78.7163L1.80801 78.6198L3.61 80.0968L1.6935 81.4171L4.00173 81.5136L3.96557 82.3756L0.644858 82.237L0 82.5927L0.0421869 81.6341L2.35042 80.0426L0.186828 78.2641L0.229015 77.3055L0.837712 77.7155Z" fill="#194DD2"/>
<path d="M4.32115 76.2023L0.385712 75.8225L0.458032 75.0448L4.39347 75.4246L4.32115 76.2023Z" fill="#194DD2"/>
<path d="M3.83901 70.3967C4.18253 70.252 4.25485 69.9868 4.28498 69.7938L4.32717 69.5226L5.16488 69.6492L5.11667 69.9868C5.0564 70.3967 4.97203 70.7584 4.32717 71.0357L3.25442 71.4939L3.24839 71.5482C3.15799 72.1571 3.19415 72.3379 3.31468 72.6755L4.68877 72.8805L4.57427 73.6763L0.662933 73.0975L1.03659 70.5715C1.14507 69.8541 1.71761 69.414 2.39862 69.5165C2.99527 69.6009 3.31468 69.9928 3.40508 70.5836L3.83901 70.3967ZM2.56135 70.7946C2.59751 70.5595 2.49505 70.3364 2.24796 70.3002C1.89841 70.252 1.82609 70.5474 1.7839 70.8187L1.54886 72.4103L2.53121 72.555C2.41068 72.2294 2.40465 71.8315 2.46492 71.4276L2.56135 70.7946Z" fill="#194DD2"/>
<path d="M3.15196 63.934L6.23161 64.6695L6.0508 65.4351L2.97116 64.6996L2.63969 66.0983L1.8743 65.9174L2.73612 62.3062L3.50151 62.4871L3.15196 63.934Z" fill="#194DD2"/>
<path d="M6.34613 61.1487L7.05728 58.7674L7.81664 58.9965L6.8825 62.1193L3.09171 60.986L3.98366 58.0018L4.737 58.2248L4.06803 60.4615L4.99012 60.7388C4.89972 60.3529 4.99012 59.9249 5.1227 59.4848L5.29145 58.9302L6.04479 59.1532L5.88207 59.7079C5.67716 60.4012 5.67113 60.576 5.74948 60.9618L6.34613 61.1487Z" fill="#194DD2"/>
<path d="M5.84591 55.0537L8.8231 56.1268L8.55793 56.8684L5.58074 55.7953L5.09257 57.1457L4.35129 56.8804L5.61087 53.3898L6.35215 53.6551L5.84591 55.0537Z" fill="#194DD2"/>
<path d="M9.32933 52.6543L10.2996 50.3695L11.0289 50.683L9.7512 53.6792L6.1171 52.1299L7.33449 49.2662L8.0577 49.5737L7.14164 51.7199L8.02756 52.0997C7.97935 51.7078 8.12399 51.2919 8.30479 50.8699L8.5338 50.3333L9.25701 50.6408L9.02799 51.1773C8.74474 51.8465 8.72063 52.0153 8.75679 52.4072L9.32933 52.6543Z" fill="#194DD2"/>
<path d="M11.6315 49.3989L8.09988 47.6264L9.22688 45.3777C9.5704 44.6965 10.2394 44.4433 10.9264 44.7869C11.6255 45.1366 11.8244 45.8419 11.4266 46.6377L11.2699 46.9512C10.9445 47.6023 10.9083 47.7771 10.9144 48.169L11.9871 48.7056L11.6315 49.3989ZM10.2092 47.8133C10.1851 47.4154 10.3599 47.0055 10.5648 46.5955L10.7215 46.282C10.8902 45.9505 10.9324 45.6852 10.5588 45.4983C10.2153 45.3295 10.0104 45.5646 9.86571 45.854L9.14853 47.2828L10.2092 47.8133Z" fill="#194DD2"/>
<path d="M14.3857 44.1539L13.9639 44.8714L10.5588 42.8698L10.9806 42.1524L12.3608 42.9663L12.4933 42.7432C12.632 42.5081 12.6862 42.3333 12.6621 42.1404L11.9811 40.4463L12.4933 39.5782L13.3552 41.7666L14.4641 41.652C14.8679 41.6159 15.0788 41.4049 15.1813 41.23L15.3199 40.9949L16.0009 41.3988L15.8261 41.6942C15.6152 42.0499 15.4223 42.3393 14.6871 42.3996L13.4817 42.4961C13.4456 42.7131 13.3491 42.912 13.2407 43.0989L13.0719 43.3883L14.3857 44.1539Z" fill="#194DD2"/>
<path d="M15.2596 35.4124L15.6996 34.7673L18.96 37.0039L18.5201 37.649L16.1636 36.0333L17.2183 39.548L16.7784 40.1931L13.5179 37.9565L13.9579 37.3114L16.3023 38.915L15.2596 35.4124Z" fill="#194DD2"/>
<path d="M20.4788 34.9843L19.9906 35.5932L16.8989 33.1275L17.381 32.5186L18.6165 33.5013C18.6527 33.3445 18.731 33.1999 18.8274 33.0733C19.0323 32.814 19.412 32.5246 19.6591 32.2112C19.7616 32.0785 19.852 31.9338 19.8881 31.759L18.719 30.8246L19.2071 30.2157L22.2988 32.6814L21.8167 33.2903L20.5209 32.2594C20.4848 32.4282 20.4064 32.5608 20.31 32.6874C20.0509 33.013 19.7254 33.2481 19.4844 33.5555C19.3759 33.6942 19.2915 33.8329 19.2493 34.0017L20.4788 34.9843Z" fill="#194DD2"/>
<path d="M26.4572 28.0755L24.7818 29.8358L21.9191 27.1049L23.5946 25.3445C24.0405 24.8743 24.7457 24.7898 25.2278 25.242C25.4146 25.4229 25.5472 25.6399 25.5412 25.8991C25.8726 25.8027 26.2523 25.9293 26.5296 26.2006C27.0961 26.7431 27.0599 27.4425 26.4572 28.0755ZM23.685 27.7017C23.7814 27.3159 24.0586 26.9783 24.372 26.6467L24.6492 26.3513C24.8421 26.1523 24.8421 25.9835 24.6733 25.8268C24.5166 25.6821 24.3238 25.7183 24.1611 25.8871L23.028 27.0747L23.685 27.7017ZM24.7517 28.7145L25.8847 27.5269C26.1077 27.2978 26.2584 27.0265 25.9811 26.7612C25.7702 26.5623 25.5352 26.5864 25.2338 26.9059L24.9566 27.2013C24.4564 27.7258 24.372 27.8826 24.2695 28.2563L24.7517 28.7145Z" fill="#194DD2"/>
<path d="M26.3548 23.6926L25.5773 23.343L28.3376 20.8049L31.0134 23.7167L30.3987 24.2774L28.2532 21.9443L27.4396 22.6919C28.0181 23.4575 28.651 24.4703 28.6871 25.3807C28.7052 25.7906 28.4521 26.0619 28.3074 26.1945L28.0121 26.4658L27.4757 25.881L27.6264 25.7424C27.7469 25.6339 27.8313 25.4409 27.759 25.031C27.6204 24.2955 27.2889 23.8554 26.8249 23.2525L26.3548 23.6926Z" fill="#194DD2"/>
<path d="M30.5313 18.8275L31.1882 18.297L35.3888 20.1056L34.7198 20.6482L34.1051 20.3829L33.7375 20.6783C32.9781 21.2932 32.4297 22.2277 32.4297 22.4387L32.4417 22.4869L31.8029 23.0054L31.0496 19.0566L30.5313 18.8275ZM33.3638 20.0574L31.8451 19.4002L32.2489 21.3957C32.3634 21.1365 32.6467 20.6361 33.2795 20.1237L33.3638 20.0574Z" fill="#194DD2"/>
<path d="M39.5834 18.2066L39.0771 17.4891L36.4013 19.3701L36.9075 20.0875L36.2566 20.5457L35.2924 19.1772L35.9192 18.7371C35.9975 17.5253 35.6118 16.838 35.3526 16.2292L34.8404 16.5909L34.0991 16.1508L37.0401 14.0829L38.8602 16.6692L39.264 16.3859L40.2282 17.7544L39.5834 18.2066ZM38.2334 17.1154L36.8653 15.1741L36.0337 15.7589C36.3651 16.5426 36.7087 17.4771 36.6845 18.2005L38.2334 17.1154Z" fill="#194DD2"/>
<path d="M41.4035 11.37L42.0724 10.9661L44.1095 14.3542L43.4405 14.7582L41.97 12.3165L41.4698 15.9518L40.8008 16.3557L38.7638 12.9676L39.4327 12.5637L40.8972 14.9933L41.4035 11.37Z" fill="#194DD2"/>
<path d="M48.069 8.54864L49.5696 11.5087L48.7982 11.9006L47.7556 9.83877L47.3518 12.1297L45.2666 11.0988L46.3092 13.1606L45.5378 13.5524L44.0371 10.5924L43.4043 10.2065L44.2601 9.77246L46.7733 11.0023L47.2674 8.2472L48.1232 7.81314L48.069 8.54864Z" fill="#194DD2"/>
<path d="M52.366 6.01057L53.0832 5.70914L54.608 9.35648L53.8908 9.65791L52.7879 7.02339L51.7634 10.5441L51.0462 10.8456L49.5214 7.19822L50.2386 6.89678L51.3355 9.51925L52.366 6.01057Z" fill="#194DD2"/>
<path d="M56.2593 8.7476L54.9877 5.0038L57.3682 4.19596C58.0914 3.94879 58.7483 4.24419 58.9954 4.96763C59.2486 5.70313 58.893 6.3482 58.0553 6.63757L57.7238 6.75212C57.0368 6.98723 56.8861 7.08369 56.6209 7.37307L57.0066 8.50646L56.2593 8.7476ZM56.3557 6.61346C56.6149 6.31202 57.0247 6.14322 57.4586 5.99251L57.7901 5.87796C58.1457 5.75739 58.3566 5.60667 58.224 5.20878C58.1035 4.84706 57.7841 4.87117 57.4827 4.97366L55.97 5.4861L56.3557 6.61346Z" fill="#194DD2"/>
<path d="M63.8469 3.15902L64.6123 6.23364L63.8469 6.42656L63.0815 3.35194L61.6894 3.7016L61.4965 2.93596L65.0945 2.03769L65.2873 2.80333L63.8469 3.15902Z" fill="#194DD2"/>
<path d="M67.8004 4.71441L70.2352 4.2502L70.3859 5.0279L67.1857 5.6368L66.4444 1.74831L69.506 1.16956L69.6506 1.94122L67.3544 2.37529L67.5352 3.32179C67.8366 3.06256 68.2584 2.95404 68.7104 2.86361L69.283 2.75509L69.4276 3.52676L68.8611 3.63528C68.15 3.76791 67.9933 3.84628 67.6859 4.09346L67.8004 4.71441Z" fill="#194DD2"/>
<path d="M72.9653 1.46496L73.3811 4.60589L72.6037 4.70838L72.1878 1.56744L70.7655 1.75433L70.6631 0.976633L74.3394 0.488312L74.4418 1.26601L72.9653 1.46496Z" fill="#194DD2"/>
<path d="M76.726 3.44838L79.2029 3.26149L79.2632 4.05125L76.0088 4.29842L75.7075 0.34965L78.8172 0.114532L78.8775 0.898259L76.5452 1.07309L76.6175 2.03165C76.9429 1.80859 77.3769 1.74227 77.8349 1.7061L78.4134 1.6639L78.4737 2.44762L77.8952 2.48983C77.1719 2.54408 77.0092 2.60437 76.6778 2.81537L76.726 3.44838Z" fill="#194DD2"/>
<path d="M83.7772 2.74906C83.9701 3.06858 84.2473 3.0927 84.4462 3.0927L84.7234 3.08667L84.7355 3.93671L84.3919 3.94274C83.9821 3.94877 83.6024 3.92465 83.2348 3.33384L82.6141 2.35117H82.5598C81.9391 2.3572 81.7763 2.42352 81.4569 2.59232L81.475 3.98494L80.6735 3.997L80.6252 0.0421941L83.1625 -6.49189e-06C83.8857 -0.00603515 84.41 0.488315 84.4221 1.17558C84.4281 1.77845 84.0966 2.15825 83.5301 2.33911L83.7772 2.74906ZM83.1806 1.54936C83.4156 1.54936 83.6205 1.41673 83.6205 1.16353C83.6145 0.813863 83.3132 0.78372 83.0359 0.789748L81.4268 0.807834L81.4389 1.80256C81.7402 1.62773 82.1319 1.56745 82.5417 1.56142L83.1806 1.54936Z" fill="#194DD2"/>
<path d="M86.9895 4.02111L86.1578 3.97891L86.3687 0.0241089L87.2004 0.0723382L87.0618 2.60438L89.0205 0.168797L90.0269 0.223055L88.6287 1.92917L89.153 2.93595C89.37 3.27959 89.599 3.30973 89.7979 3.32179L90.0751 3.33987L90.0269 4.18389L89.6834 4.1658C89.2736 4.14169 89.0024 4.07537 88.5685 3.47853L88.0682 2.55012L86.9895 4.02111Z" fill="#194DD2"/>
<path d="M91.4191 4.34063L91.8289 0.409943L92.6003 0.488315L92.1905 4.419L91.4191 4.34063Z" fill="#194DD2"/>
<path d="M95.0291 0.783712L96.9697 3.86436L97.3916 1.15146L98.169 1.27203L97.5603 5.17861L96.7829 5.05803L95.005 2.17633L94.6133 4.72043L93.8358 4.59986L94.3541 1.27203L94.0588 0.632996L95.0291 0.783712Z" fill="#194DD2"/>
<path d="M103.328 6.45068L102.346 6.2035L101.64 1.94727L102.502 2.1643L103.033 5.54638L105.124 2.82142L105.992 3.03845L103.328 6.45068Z" fill="#194DD2"/>
<path d="M106.046 7.19219L107.221 3.41824L107.999 3.65939L107.058 6.67975L109.065 7.3007L108.83 8.06031L106.046 7.19219Z" fill="#194DD2"/>
<path d="M112.217 4.97968L113.013 5.28111L113.585 9.82069L112.778 9.51926L112.699 8.84405L112.253 8.67525C111.337 8.33161 110.253 8.33161 110.072 8.44013L110.036 8.4763L109.264 8.18692L112.29 5.52828L112.217 4.97968ZM112.597 8.04224L112.392 6.39641L110.873 7.75889C111.157 7.72875 111.729 7.71669 112.494 8.00004L112.597 8.04224Z" fill="#194DD2"/>
<path d="M115.466 6.31201L117.702 7.31277C118.786 7.80109 119.244 8.75965 118.732 9.90509C118.232 11.0264 117.189 11.4123 116.086 10.9179L114.616 10.2608L115.912 7.36703L115.466 7.16808V6.31201ZM116.659 7.71066L115.689 9.87495L116.406 10.1945C117.105 10.508 117.677 10.2849 117.991 9.5916C118.304 8.88625 118.075 8.33764 117.376 8.03018L116.659 7.71066Z" fill="#194DD2"/>
<path d="M119.136 12.3768L120.932 8.85007L121.625 9.19973L119.829 12.7265L119.136 12.3768Z" fill="#194DD2"/>
<path d="M126.886 12.8591L125.223 15.7348L124.476 15.3007L125.633 13.2992L123.493 14.2156L123.216 11.9006L122.059 13.9021L121.312 13.468L122.975 10.5924L122.957 9.85083L123.788 10.3331L124.132 13.1184L126.711 12.0272L127.543 12.5095L126.886 12.8591Z" fill="#194DD2"/>
<path d="M126.609 16.6512L128.773 13.3414L129.423 13.7695L127.26 17.0792L126.609 16.6512Z" fill="#194DD2"/>
<path d="M131.973 18.93C131.937 19.3038 132.142 19.4907 132.304 19.6052L132.527 19.768L132.027 20.4553L131.75 20.2503C131.418 20.0091 131.129 19.762 131.183 19.0626L131.274 17.8991L131.231 17.869C130.731 17.5072 130.563 17.453 130.201 17.4048L129.381 18.5261L128.73 18.0558L131.057 14.8607L133.118 16.3618C133.702 16.7898 133.829 17.5012 133.425 18.0558C133.07 18.5442 132.575 18.6467 132.009 18.4537L131.973 18.93ZM132.214 17.6097C132.407 17.7484 132.648 17.7665 132.798 17.5615C133.003 17.2782 132.774 17.0732 132.551 16.9104L131.25 15.9639L130.665 16.7657C131.008 16.8079 131.364 16.9888 131.696 17.2299L132.214 17.6097Z" fill="#194DD2"/>
<path d="M138.018 21.3113L135.938 23.7047L135.348 23.1862L137.427 20.7929L136.342 19.8524L136.86 19.2556L139.663 21.6911L139.145 22.288L138.018 21.3113Z" fill="#194DD2"/>
<path d="M139.012 25.4289L140.79 27.1591L140.235 27.7318L137.897 25.459L140.651 22.6195L142.887 24.7899L142.339 25.3566L140.663 23.7288L139.994 24.4221C140.38 24.5186 140.712 24.8019 141.043 25.1214L141.459 25.5254L140.91 26.092L140.495 25.6881C139.976 25.1817 139.82 25.0973 139.446 24.9888L139.012 25.4289Z" fill="#194DD2"/>
<path d="M144.641 27.7982L142.309 29.9444L141.778 29.3656L144.111 27.2194L143.14 26.1644L143.719 25.6339L146.232 28.3649L145.653 28.8954L144.641 27.7982Z" fill="#194DD2"/>
<path d="M145.171 32.0122L146.744 33.9293L146.13 34.4357L144.062 31.9157L147.118 29.4018L149.095 31.8072L148.486 32.3076L147.003 30.499L146.262 31.1079C146.636 31.2466 146.931 31.5661 147.226 31.9157L147.594 32.3619L146.985 32.8622L146.618 32.4161C146.16 31.8555 146.015 31.753 145.653 31.6083L145.171 32.0122Z" fill="#194DD2"/>
<path d="M146.985 35.539L150.185 33.2179L151.656 35.2496C152.102 35.8705 152.018 36.5819 151.397 37.028C150.764 37.4862 150.047 37.3355 149.529 36.6181L149.324 36.3347C148.902 35.75 148.757 35.6294 148.408 35.4606L147.443 36.172L146.985 35.539ZM149.046 35.0084C149.408 35.1712 149.691 35.5088 149.962 35.8826L150.167 36.1659C150.384 36.4674 150.595 36.6301 150.939 36.383C151.246 36.1599 151.132 35.8645 150.945 35.6053L150.011 34.3151L149.046 35.0084Z" fill="#194DD2"/>
<path d="M150.36 40.3981L149.92 39.6927L153.271 37.5947L153.711 38.3001L152.355 39.1501L152.494 39.3672C152.638 39.6023 152.765 39.7289 152.952 39.7952L154.766 39.976L155.302 40.8321L152.964 40.5849L152.554 41.6279C152.403 42.0017 152.494 42.2911 152.596 42.4599L152.741 42.695L152.066 43.117L151.885 42.8276C151.668 42.4779 151.499 42.1705 151.789 41.4953L152.265 40.38C152.09 40.2473 151.951 40.0725 151.837 39.8916L151.662 39.6083L150.36 40.3981Z" fill="#194DD2"/>
<path d="M157.707 45.221L158.074 45.9083L154.585 47.7651L154.217 47.0778L156.736 45.7395L153.133 45.0462L152.765 44.3589L156.254 42.5021L156.622 43.1893L154.115 44.5217L157.707 45.221Z" fill="#194DD2"/>
<path d="M155.664 50.0439L155.344 49.3326L158.96 47.7229L159.28 48.4343L157.833 49.0793C157.954 49.1818 158.05 49.3205 158.111 49.4652C158.243 49.7666 158.328 50.2369 158.49 50.5986C158.557 50.7493 158.647 50.9 158.786 51.0145L160.154 50.4057L160.473 51.117L156.857 52.7267L156.538 52.0153L158.05 51.3401C157.918 51.2316 157.833 51.0989 157.773 50.9543C157.604 50.5745 157.544 50.1766 157.387 49.8209C157.315 49.6581 157.231 49.5255 157.104 49.4049L155.664 50.0439Z" fill="#194DD2"/>
<path d="M159.009 58.5383L158.231 56.2354L161.974 54.9694L162.751 57.2723C162.962 57.8872 162.709 58.5504 162.082 58.7674C161.835 58.8518 161.582 58.8639 161.353 58.7373C161.281 59.0749 160.997 59.3522 160.63 59.4728C159.895 59.7199 159.286 59.3582 159.009 58.5383ZM159.232 56.7237L159.756 58.2791C159.858 58.5805 160.027 58.8398 160.389 58.7192C160.666 58.6288 160.75 58.4057 160.612 57.9897L160.485 57.6039C160.25 56.9166 160.154 56.7719 159.87 56.5067L159.232 56.7237ZM160.63 56.2535C160.925 56.5127 161.094 56.9166 161.244 57.3507L161.377 57.7365C161.467 57.9957 161.612 58.0741 161.829 58.0018C162.034 57.9355 162.088 57.7425 162.01 57.5195L161.486 55.9641L160.63 56.2535Z" fill="#194DD2"/>
<path d="M162.944 60.5037L163.619 59.9792L164.583 63.6024L160.762 64.6212L160.545 63.8194L163.607 63.0055L163.324 61.9385C162.378 62.0952 161.184 62.1856 160.365 61.7938C159.991 61.619 159.87 61.2693 159.816 61.0764L159.714 60.6845L160.479 60.4795L160.533 60.6785C160.576 60.8352 160.708 61.004 161.1 61.1246C161.817 61.3477 162.359 61.2572 163.107 61.1246L162.944 60.5037Z" fill="#194DD2"/>
<path d="M165.312 66.454L165.475 67.2859L161.919 70.1736L161.751 69.3296L162.275 68.9076L162.185 68.4434C161.992 67.4849 161.419 66.5625 161.232 66.466L161.184 66.454L161.021 65.6461L164.873 66.8097L165.312 66.454ZM162.908 68.3952L164.198 67.3522L162.239 66.7855C162.414 67.0086 162.727 67.4909 162.89 68.2927L162.908 68.3952Z" fill="#194DD2"/>
<path d="M161.666 74.7494L162.54 74.6348L162.112 71.3914L161.244 71.506L161.142 70.7162L162.799 70.4992L162.902 71.2528C163.938 71.8858 164.728 71.8556 165.385 71.9099L165.3 71.2889L166.036 70.8368L166.506 74.4057L163.372 74.8217L163.438 75.3161L161.781 75.5331L161.666 74.7494ZM163.263 74.0501L165.62 73.7366L165.487 72.7298C164.638 72.6574 163.649 72.5308 163.022 72.1812L163.263 74.0501Z" fill="#194DD2"/>
<path d="M166.879 79.5482L166.928 80.3259L162.98 80.567L162.932 79.7893L165.783 79.6145L162.793 77.4864L162.745 76.7087L166.693 76.4675L166.741 77.2452L163.908 77.4201L166.879 79.5482Z" fill="#194DD2"/>
<path d="M166.313 86.7524L162.992 86.7163L163.004 85.8542L165.319 85.8783L163.468 84.4616L165.349 83.087L163.034 83.0629L163.04 82.2008L166.361 82.237L167 81.8572L166.988 82.8218L164.734 84.4857L166.952 86.1978L166.94 87.1624L166.313 86.7524Z" fill="#194DD2"/>
<path d="M166.578 91.7442L166.512 92.5219L162.576 92.1903L162.643 91.4126L165.487 91.6538L162.836 89.1157L162.902 88.338L166.837 88.6696L166.771 89.4473L163.944 89.2122L166.578 91.7442Z" fill="#194DD2"/>
<path d="M162.359 93.9266L166.265 94.5234L165.885 97.0072C165.771 97.7608 165.21 98.2069 164.457 98.0924C163.685 97.9718 163.276 97.3629 163.414 96.4888L163.468 96.1391C163.577 95.4217 163.559 95.2408 163.426 94.8731L162.245 94.6922L162.359 93.9266ZM164.204 94.9937C164.348 95.3614 164.312 95.8075 164.24 96.2597L164.186 96.6093C164.131 96.9771 164.167 97.2363 164.583 97.3026C164.963 97.3629 165.084 97.0675 165.132 96.754L165.373 95.1745L164.204 94.9937Z" fill="#194DD2"/>
<path d="M163.806 103.253L160.726 102.511L160.913 101.746L163.993 102.487L164.33 101.089L165.096 101.276L164.228 104.887L163.462 104.7L163.806 103.253Z" fill="#194DD2"/>
<path d="M160.606 106.044L159.889 108.419L159.129 108.19L160.069 105.068L163.86 106.207L162.962 109.191L162.209 108.962L162.884 106.725L161.962 106.448C162.052 106.834 161.956 107.262 161.823 107.702L161.654 108.257L160.901 108.028L161.07 107.473C161.281 106.78 161.281 106.605 161.208 106.219L160.606 106.044Z" fill="#194DD2"/>
<path d="M161.1 112.115L158.123 111.03L158.394 110.288L161.371 111.373L161.865 110.023L162.601 110.294L161.335 113.785L160.594 113.514L161.1 112.115Z" fill="#194DD2"/>
<path d="M157.598 114.533L156.622 116.811L155.893 116.498L157.176 113.502L160.811 115.063L159.581 117.927L158.858 117.619L159.78 115.473L158.894 115.093C158.942 115.485 158.798 115.901 158.617 116.323L158.388 116.854L157.665 116.546L157.894 116.016C158.177 115.346 158.201 115.178 158.171 114.786L157.598 114.533Z" fill="#194DD2"/>
<path d="M154.947 121.104C154.573 121.128 154.422 121.357 154.332 121.538L154.205 121.785L153.452 121.399L153.609 121.092C153.795 120.724 153.994 120.404 154.687 120.35L155.851 120.254L155.875 120.206C156.152 119.657 156.176 119.476 156.17 119.114L154.929 118.481L155.29 117.764L158.816 119.56L157.659 121.833C157.327 122.478 156.646 122.713 156.031 122.4C155.495 122.129 155.314 121.658 155.417 121.068L154.947 121.104ZM156.285 121.134C156.176 121.345 156.2 121.586 156.423 121.701C156.737 121.857 156.899 121.604 157.026 121.357L157.755 119.922L156.869 119.47C156.881 119.82 156.761 120.193 156.574 120.561L156.285 121.134Z" fill="#194DD2"/>
<path d="M152.313 123.371L152.741 122.653L156.134 124.679L155.706 125.396L153.53 124.1L154.772 126.964L154.254 127.832L153.398 125.8H152.265C151.861 125.836 151.722 126.023 151.62 126.192L151.481 126.427L150.752 125.993L150.927 125.698C151.138 125.342 151.325 125.137 152.054 125.028L153.108 125.016L152.313 123.371Z" fill="#194DD2"/>
<path d="M149.987 127.126L153.283 129.315L152.855 129.966L149.559 127.778L149.987 127.126Z" fill="#194DD2"/>
<path d="M151.457 131.998L147.829 132.287L150.041 133.921L149.571 134.554L146.389 132.203L146.859 131.57L150.234 131.334L148.167 129.803L148.637 129.17L151.343 131.172L152.048 131.208L151.457 131.998Z" fill="#194DD2"/>
<path d="M142.598 136.718L143.273 135.958L147.371 137.297L146.78 137.96L143.538 136.869L144.991 139.986L144.4 140.655L142.598 136.718Z" fill="#194DD2"/>
<path d="M140.675 138.786L143.484 141.571L142.905 142.15L140.663 139.919L139.181 141.408L138.614 140.848L140.675 138.786Z" fill="#194DD2"/>
<path d="M139.783 145.291L139.151 145.857L134.86 144.278L135.504 143.699L136.131 143.934L136.481 143.621C137.21 142.97 137.71 142.005 137.692 141.794L137.68 141.746L138.295 141.197L139.259 145.104L139.783 145.291ZM136.891 144.218L138.445 144.79L137.933 142.819C137.831 143.084 137.578 143.603 136.969 144.145L136.891 144.218Z" fill="#194DD2"/>
<path d="M137.108 147.552L135.185 149.077C134.251 149.818 133.19 149.782 132.407 148.793C131.641 147.829 131.78 146.726 132.726 145.978L133.986 144.977L135.956 147.461L136.342 147.16L137.108 147.552ZM135.318 147.974L133.841 146.111L133.226 146.599C132.63 147.075 132.557 147.684 133.033 148.281C133.51 148.884 134.106 148.932 134.703 148.456L135.318 147.974Z" fill="#194DD2"/>
<path d="M130.044 148.01L132.346 151.229L131.714 151.681L129.411 148.462L130.044 148.01Z" fill="#194DD2"/>
<path d="M126.036 154.647L124.259 151.844L124.988 151.38L126.229 153.333L126.41 151.012L128.586 151.838L127.344 149.885L128.074 149.42L129.851 152.224L130.52 152.549L129.707 153.062L127.085 152.079L126.856 154.87L126.043 155.389L126.036 154.647Z" fill="#194DD2"/>
<path d="M122.806 152.658L124.741 156.106L124.06 156.486L122.125 153.038L122.806 152.658Z" fill="#194DD2"/>
<path d="M118.31 156.365C117.997 156.166 117.738 156.257 117.557 156.347L117.31 156.468L116.936 155.708L117.244 155.558C117.611 155.377 117.961 155.238 118.551 155.606L119.54 156.221L119.588 156.197C120.142 155.919 120.263 155.793 120.474 155.497L119.859 154.255L120.576 153.9L122.336 157.439L120.052 158.572C119.401 158.891 118.714 158.674 118.407 158.059C118.141 157.517 118.274 157.035 118.708 156.625L118.31 156.365ZM119.365 157.185C119.154 157.288 119.027 157.499 119.136 157.722C119.293 158.035 119.576 157.927 119.823 157.806L121.263 157.089L120.823 156.203C120.624 156.486 120.305 156.715 119.931 156.902L119.365 157.185Z" fill="#194DD2"/>
<path d="M113.386 160.622L112.229 157.674L112.959 157.384L114.116 160.338L115.454 159.814L115.743 160.543L112.29 161.9L112 161.17L113.386 160.622Z" fill="#194DD2"/>
<path d="M109.27 159.591L106.914 160.362L106.667 159.609L109.764 158.59L111 162.346L108.041 163.316L107.794 162.569L110.011 161.839L109.71 160.923C109.445 161.219 109.041 161.381 108.607 161.526L108.059 161.707L107.812 160.959L108.366 160.778C109.053 160.549 109.198 160.453 109.469 160.176L109.27 159.591Z" fill="#194DD2"/>
<path d="M104.575 163.473L103.756 160.411L104.515 160.206L105.335 163.268L106.721 162.894L106.926 163.654L103.34 164.613L103.135 163.853L104.575 163.473Z" fill="#194DD2"/>
<path d="M100.598 161.99L98.169 162.497L98.0063 161.719L101.2 161.056L102.008 164.932L98.9585 165.571L98.7958 164.8L101.086 164.323L100.887 163.383C100.592 163.648 100.17 163.769 99.7239 163.859L99.1574 163.98L98.9947 163.208L99.5612 163.087C100.272 162.937 100.429 162.858 100.724 162.611L100.598 161.99Z" fill="#194DD2"/>
<path d="M96.6261 161.954L97.1927 165.867L94.7096 166.228C93.9563 166.337 93.3657 165.933 93.2512 165.173C93.1367 164.402 93.6068 163.835 94.4806 163.708L94.8302 163.66C95.5474 163.558 95.7161 163.485 96.0295 163.256L95.8547 162.069L96.6261 161.954ZM96.138 164.034C95.8246 164.281 95.3907 164.371 94.9387 164.438L94.5891 164.486C94.2215 164.54 93.9804 164.649 94.0407 165.065C94.0949 165.445 94.4083 165.475 94.7277 165.426L96.3067 165.197L96.138 164.034Z" fill="#194DD2"/>
<path d="M90.7561 162.702L91.5878 162.635L91.9012 166.578L91.0695 166.644L90.943 165.047L90.6838 165.065C90.4126 165.089 90.2378 165.137 90.0932 165.27L89.0988 166.795L88.0923 166.873L89.3941 164.908L88.6588 164.064C88.3997 163.757 88.1044 163.702 87.9055 163.72L87.6343 163.745L87.574 162.955L87.9176 162.931C88.3274 162.901 88.6769 162.895 89.147 163.461L89.9184 164.396C90.1173 164.305 90.3343 164.263 90.5512 164.245L90.8827 164.221L90.7561 162.702Z" fill="#194DD2"/>
<path d="M83.0721 166.994L82.2946 167L82.2585 163.045L83.0359 163.039L83.06 165.897L85.3381 163.021L86.1156 163.015L86.1517 166.97L85.3743 166.976L85.3502 164.136L83.0721 166.994Z" fill="#194DD2"/>
<path d="M79.7394 162.955L80.5168 163.003L80.2818 166.952L79.5043 166.904L79.6007 165.324C79.4501 165.384 79.2874 165.402 79.1307 165.396C78.8052 165.378 78.3472 165.234 77.9494 165.209C77.7807 165.197 77.6119 165.209 77.4492 165.282L77.3588 166.777L76.5814 166.729L76.8164 162.78L77.5938 162.828L77.4974 164.48C77.6541 164.414 77.8108 164.402 77.9675 164.408C78.3773 164.432 78.763 164.564 79.1487 164.582C79.3235 164.595 79.4862 164.582 79.649 164.522L79.7394 162.955Z" fill="#194DD2"/>
<path d="M70.6631 162.002L73.0618 162.37L72.4591 166.277L70.0605 165.909C69.4216 165.812 68.9455 165.282 69.048 164.625C69.0902 164.366 69.1926 164.136 69.4096 163.992C69.1384 163.775 69.0299 163.395 69.0902 163.009C69.2047 162.243 69.8013 161.87 70.6631 162.002ZM71.9408 164.492C71.5732 164.637 71.1332 164.601 70.6812 164.528L70.2834 164.468C70.0122 164.426 69.8736 164.522 69.8375 164.745C69.8073 164.956 69.9459 165.095 70.181 165.131L71.8022 165.384L71.9408 164.492ZM72.1638 163.039L70.5426 162.786C70.2232 162.738 69.9218 162.768 69.8616 163.142C69.8194 163.431 69.9761 163.606 70.404 163.672L70.8017 163.732C71.5189 163.841 71.6937 163.823 72.0613 163.696L72.1638 163.039Z" fill="#194DD2"/>
<path d="M67.1254 164.595L67.2821 165.439L63.6239 164.625L64.4857 160.76L65.2993 160.941L64.6123 164.034L65.6911 164.275C65.9864 163.365 66.4625 162.261 67.1857 161.713C67.5172 161.466 67.8788 161.514 68.0716 161.556L68.4694 161.647L68.2946 162.424L68.0957 162.382C67.939 162.346 67.7281 162.388 67.4328 162.683C66.9085 163.214 66.7337 163.738 66.5047 164.462L67.1254 164.595Z" fill="#194DD2"/>
<path d="M60.7492 163.943L59.9356 163.708L59.0135 159.223L59.8452 159.464L59.9778 160.121L60.4298 160.254C61.3699 160.525 62.4487 160.447 62.6235 160.32L62.6596 160.284L63.4491 160.513L60.6407 163.395L60.7492 163.943ZM60.1345 160.917L60.4659 162.539L61.8762 161.062C61.5989 161.116 61.0264 161.17 60.2429 160.941L60.1345 160.917Z" fill="#194DD2"/>
<path d="M55.078 156.872L54.7767 157.698L57.8443 158.819L58.1456 157.993L58.893 158.264L58.3204 159.832L57.6032 159.573C56.5606 160.2 56.2231 160.911 55.8736 161.466L56.4642 161.683L56.5245 162.539L53.1495 161.309L54.2343 158.343L53.7703 158.174L54.3428 156.601L55.078 156.872ZM54.9515 158.608L54.1379 160.839L55.0901 161.188C55.5481 160.471 56.1146 159.651 56.7233 159.259L54.9515 158.608Z" fill="#194DD2"/>
<path d="M48.4005 159.265L47.6893 158.946L49.3045 155.335L50.0156 155.654L48.8465 158.258L52.119 156.595L52.8301 156.914L51.215 160.525L50.5038 160.206L51.667 157.613L48.4005 159.265Z" fill="#194DD2"/>
<path d="M42.2954 155.419L43.8684 152.495L44.6278 152.905L43.5309 154.937L45.6463 153.96L45.9958 156.263L47.0927 154.225L47.852 154.635L46.2791 157.559L46.3213 158.301L45.4715 157.842L45.0436 155.075L42.5003 156.245L41.6566 155.787L42.2954 155.419Z" fill="#194DD2"/>
<path d="M37.7453 153.333L37.0883 152.911L39.2158 149.577L39.8727 149.999L38.3359 152.405L41.8133 151.235L42.4702 151.657L40.3428 154.991L39.6859 154.569L41.2166 152.176L37.7453 153.333Z" fill="#194DD2"/>
<path d="M37.7814 148.582L35.437 151.772L33.4121 150.283C32.7973 149.83 32.6647 149.125 33.1167 148.51C33.5808 147.883 34.31 147.805 35.0212 148.329L35.3044 148.54C35.889 148.968 36.0578 149.035 36.4435 149.095L37.1546 148.13L37.7814 148.582ZM35.9734 149.722C35.5817 149.68 35.202 149.439 34.8344 149.167L34.5511 148.962C34.2498 148.739 34.0027 148.655 33.7496 148.992C33.5205 149.3 33.7254 149.541 33.9846 149.734L35.2683 150.68L35.9734 149.722Z" fill="#194DD2"/>
</g>
<defs>
<clipPath id="clip0_10_351">
<rect width="167" height="167" fill="white"/>
</clipPath>
</defs>
</svg>
