<svg width="1074" height="271" viewBox="0 0 1074 271" fill="none" xmlns="http://www.w3.org/2000/svg">
<g clip-path="url(#clip0_10_3)">
<path d="M11.2 97.2H0V20.55H53.95V31.85H11.2V97.2Z" fill="#194DD2"/>
<path d="M70.9 97.2V20.55H110.25C123.81 20.55 132.65 28.77 132.65 42.44C132.65 56 123.81 64.63 110.25 64.63H96.69C91.76 64.63 86.72 65.25 82.1 67.71V97.2H70.9ZM110.25 53.33C117.55 53.33 121.55 49.84 121.55 42.44C121.55 34.73 117.65 31.86 110.25 31.86H82.1V56.42C86.72 53.75 91.66 53.34 96.69 53.34H110.25V53.33Z" fill="#194DD2"/>
<path d="M165.84 19.21H178.17L215.06 97.2H202.52L197.49 86H174.17C160.2 86 152.69 90.42 150.95 93.6L149 97.2H136.88L170.07 28.66L165.84 19.21ZM192.46 74.7L175.71 42.33L158.76 79.01C161.53 76.65 167.8 74.69 178.28 74.69H192.46V74.7Z" fill="#194DD2"/>
<path d="M273.63 84.98V97.2H262.64V84.98C257.3 81.79 252.06 81.79 246.51 81.79C229.76 81.79 215.17 68.23 215.17 51.58C215.17 34.83 229.76 21.27 246.51 21.27H262.64V17.47H273.63V21.27H289.76C306.51 21.27 320.07 34.83 320.07 51.58C320.07 68.23 306.51 81.79 289.76 81.79C283.09 81.79 278.26 82.51 273.63 84.98ZM262.64 73.67V32.47H246.51C235.93 32.47 227.4 41 227.4 51.58C227.4 62.06 235.93 70.59 246.51 70.59C253.29 70.59 258.02 71 262.64 73.67ZM308.88 51.58C308.88 41 300.35 32.47 289.77 32.47H273.64V73.67C278.47 70.79 284.22 70.59 289.77 70.59C300.35 70.59 308.88 62.06 308.88 51.58Z" fill="#194DD2"/>
<path d="M393.75 20.55H404.85V97.2H393.75V38.12L348.65 97.2H337.55V20.55H348.65V79.63L393.75 20.55Z" fill="#194DD2"/>
<path d="M482.02 20.55V97.2H470.82V67.71C465.68 70.18 460.24 72.03 451.3 72.03C431.67 72.03 421.3 64.84 421.3 43.46C421.3 39.66 422.02 27.23 423.36 20.55H434.56C433.22 29.08 432.51 38.02 432.51 46.55C432.51 57.54 439.7 61.04 451.72 61.04C457.68 61.04 463.33 59.09 470.83 56.42V20.55H482.02Z" fill="#194DD2"/>
<path d="M515.83 86H563.1V97.2H504.63V20.55H558.58V31.85H515.83V55.07C520.45 52.4 525.28 52.09 530.32 52.09H547.07V63.5H530.32C525.39 63.5 520.46 64.01 515.83 66.48V86Z" fill="#194DD2"/>
<path d="M639.54 38.84C633.99 33.09 625.87 29.59 617.14 29.59C600.08 29.59 586.93 41.82 586.93 59.08C586.93 75.62 601.21 87.75 617.24 87.75C627.21 87.75 636.04 83.13 641.59 75.73L648.47 85.08C640.76 93.71 629.46 98.95 617.13 98.95C593.91 98.95 575.93 80.87 575.93 57.75C575.93 35.14 595.25 18.29 617.24 18.29C628.75 18.29 639.23 22.91 646.73 30.42L639.54 38.84Z" fill="#194DD2"/>
<path d="M676.12 97.2H664.92V20.55H676.12V52.1H681.26C686.09 52.1 691.12 51.59 695.64 49.12L715.06 20.56H728.52L703.35 56.63L717.12 77.28C722.26 84.99 726.27 85.91 729.76 85.91C730.58 85.91 731.4 85.81 732.23 85.81V97.2C723.29 97.2 716.82 98.43 708.39 85.07L693.7 61.54C690.1 63.08 686.3 63.49 682.6 63.49H676.13V97.2H676.12Z" fill="#194DD2"/>
<path d="M806.93 20.55H818.03V97.2H806.93V38.12L761.82 97.2H750.72V20.55H761.82V79.63L806.93 20.55Z" fill="#194DD2"/>
<path d="M896.84 20.55H907.94V97.2H896.84V38.12L851.73 97.2H840.63V20.55H851.73V79.63L896.84 20.55ZM874.85 7.71C868.17 7.71 866.94 3.29 866.94 0H855.12C855.84 6.37 860.16 14.9 874.85 14.9C889.54 14.9 893.86 6.37 894.58 0H882.76C882.76 3.29 881.53 7.71 874.85 7.71Z" fill="#194DD2"/>
<path d="M479.37 270.02V258.2H419.98V270.02H408.78V247H420.08C432 232.41 438.99 214.32 442.48 192.85H434.05L429.32 181.55H483.88V247H490.56V270.02H479.37ZM472.69 247V192.85H453.68C451.73 209.39 444.02 232.2 433.75 247H472.69Z" fill="#194DD2"/>
<path d="M563.22 181.55H574.32V258.2H563.22V199.12L518.11 258.2H507.01V181.55H518.11V240.63L563.22 181.55Z" fill="#194DD2"/>
<path d="M595.59 191.42C602.68 184.33 609.05 179.29 623.33 179.29C644.5 179.29 650.87 194.09 650.87 202.92C650.87 209.8 648.92 214.02 643.99 217.41C650.67 221.32 654.57 226.76 654.57 235.8C654.57 248.23 646.14 259.95 623.33 259.95C611.31 259.95 597.33 254.61 589.73 246.08L596.61 236.73C602.16 244.13 613.36 248.75 623.32 248.75C638.32 248.75 643.46 242.69 643.46 235.7C643.46 226.76 635.65 224.5 628.25 224.5H615.51V213.1H628.25C635.13 213.1 639.66 209.61 639.66 202.52C639.66 194.09 630 190.6 623.32 190.6C613.66 190.6 608.73 193.79 602.77 199.85L595.59 191.42Z" fill="#194DD2"/>
<path d="M691.76 180.21H704.09L740.98 258.2H728.44L723.4 247H700.08C686.11 247 678.6 251.42 676.86 254.6L674.91 258.2H662.79L695.98 189.66L691.76 180.21ZM718.38 235.7L701.63 203.33L684.67 240.01C687.45 237.65 693.71 235.69 704.19 235.69H718.38V235.7Z" fill="#194DD2"/>
<path d="M811.57 181.55H822.67V258.2H811.57V199.12L766.46 258.2H755.36V181.55H766.46V240.63L811.57 181.55ZM789.59 168.71C782.91 168.71 781.68 164.29 781.68 161H769.86C770.58 167.37 774.89 175.9 789.59 175.9C804.28 175.9 808.6 167.37 809.32 161H797.5C797.5 164.29 796.26 168.71 789.59 168.71Z" fill="#194DD2"/>
<path d="M856.38 258.2H845.28V181.55H856.38V212.99C859.46 211.45 862.85 210.93 866.14 210.93C870.66 210.93 884.12 213.19 891.11 213.19C894.3 213.19 898.2 212.68 901.49 211.24V181.54H912.69V258.19H901.49V222.53C898.2 223.97 894.3 224.48 891.11 224.48C884.12 224.48 870.66 222.22 866.14 222.22C862.85 222.22 859.46 222.73 856.38 224.28V258.2Z" fill="#194DD2"/>
<path d="M946.49 247H993.76V258.2H935.29V181.55H989.24V192.85H946.49V216.07C951.11 213.4 955.94 213.09 960.98 213.09H977.73V224.5H960.98C956.05 224.5 951.12 225.01 946.49 227.48V247Z" fill="#194DD2"/>
<path d="M1011.74 258.2V181.55H1051.09C1064.65 181.55 1073.49 189.77 1073.49 203.44C1073.49 217 1064.65 225.63 1051.09 225.63H1037.53C1032.6 225.63 1027.56 226.25 1022.94 228.71V258.2H1011.74ZM1051.1 214.33C1058.4 214.33 1062.4 210.84 1062.4 203.44C1062.4 195.73 1058.5 192.86 1051.1 192.86H1022.95V217.42C1027.57 214.75 1032.51 214.34 1037.54 214.34H1051.1V214.33Z" fill="#194DD2"/>
</g>
<defs>
<clipPath id="clip0_10_3">
<rect width="1073.5" height="270.02" fill="white"/>
</clipPath>
</defs>
</svg>
