<svg width="1163" height="909" viewBox="0 0 1163 909" fill="none" xmlns="http://www.w3.org/2000/svg">
<g clip-path="url(#clip0_10_25)">
<path d="M91.7 897.24H97.7V908.44H91.7" stroke="#194DD2" stroke-miterlimit="10"/>
<path d="M78.77 908.44H33.52" stroke="#194DD2" stroke-miterlimit="10" stroke-dasharray="12.93 12.93"/>
<path d="M27.05 908.44H21.05V902.44" stroke="#194DD2" stroke-miterlimit="10"/>
<path d="M21.05 888.45V867.48" stroke="#194DD2" stroke-miterlimit="10" stroke-dasharray="13.98 13.98"/>
<path d="M21.05 860.49V854.49H32.35V860.49" stroke="#194DD2" stroke-miterlimit="10"/>
<path d="M32.35 870.74V886.11" stroke="#194DD2" stroke-miterlimit="10" stroke-dasharray="10.25 10.25"/>
<path d="M32.35 891.24V897.24H38.35" stroke="#194DD2" stroke-miterlimit="10"/>
<path d="M49.02 897.24H86.37" stroke="#194DD2" stroke-miterlimit="10" stroke-dasharray="10.67 10.67"/>
<path d="M91.7 826.34H97.7V837.54H91.7" stroke="#194DD2" stroke-miterlimit="10"/>
<path d="M78.77 837.54H33.52" stroke="#194DD2" stroke-miterlimit="10" stroke-dasharray="12.93 12.93"/>
<path d="M27.05 837.54H21.05V831.54" stroke="#194DD2" stroke-miterlimit="10"/>
<path d="M21.05 820V798.19C21.05 784.63 29.27 775.79 42.94 775.79C56.5 775.79 65.13 784.63 65.13 798.19V811.75C65.13 812.84 65.16 813.94 65.23 815.04" stroke="#194DD2" stroke-miterlimit="10" stroke-dasharray="11.54 11.54"/>
<path d="M66.09 820.73C66.56 822.64 67.25 824.52 68.21 826.33H74.21" stroke="#194DD2" stroke-miterlimit="10"/>
<path d="M32.35 820.34V826.34H38.35" stroke="#194DD2" stroke-miterlimit="10"/>
<path d="M50.91 826.34H56.91C55.86 824.53 55.16 822.67 54.7 820.78" stroke="#194DD2" stroke-miterlimit="10"/>
<path d="M53.83 809.31V798.18C53.83 790.88 50.34 786.88 42.94 786.88C35.23 786.88 32.36 790.78 32.36 798.18V814.57" stroke="#194DD2" stroke-miterlimit="10" stroke-dasharray="11.53 11.53"/>
<path d="M34.57 740.99L29.17 738.38L19.71 742.59V736.59" stroke="#194DD2" stroke-miterlimit="10"/>
<path d="M19.71 736.26V730.26L25.14 727.7" stroke="#194DD2" stroke-miterlimit="10"/>
<path d="M34.73 723.16L87.48 698.21" stroke="#194DD2" stroke-miterlimit="10" stroke-dasharray="10.61 10.61"/>
<path d="M92.28 695.94L97.7 693.37V699.37" stroke="#194DD2" stroke-miterlimit="10"/>
<path d="M97.7 699.91V705.91L92.23 708.37" stroke="#194DD2" stroke-miterlimit="10"/>
<path d="M91.98 708.48L86.5 710.94V716.94" stroke="#194DD2" stroke-miterlimit="10"/>
<path d="M86.5 730.5V734.27C86.5 741.31 87.62 746.7 89.14 750.55" stroke="#194DD2" stroke-miterlimit="10" stroke-dasharray="13.56 13.56"/>
<path d="M92.61 756.32C93.12 756.84 93.63 757.23 94.1 757.49L97.7 759.44V765.44" stroke="#194DD2" stroke-miterlimit="10"/>
<path d="M97.7 765.57V771.57L92.3 768.95" stroke="#194DD2" stroke-miterlimit="10"/>
<path d="M80.76 763.36L40.34 743.79" stroke="#194DD2" stroke-miterlimit="10" stroke-dasharray="12.83 12.83"/>
<path d="M75.2 721.98V715.98L69.87 718.74" stroke="#194DD2" stroke-miterlimit="10"/>
<path d="M62.64 722.48L51.78 728.1" stroke="#194DD2" stroke-miterlimit="10" stroke-dasharray="8.15 8.15"/>
<path d="M48.16 729.97L42.83 732.73L48.28 735.24" stroke="#194DD2" stroke-miterlimit="10"/>
<path d="M56.88 739.22L69.77 745.18" stroke="#194DD2" stroke-miterlimit="10" stroke-dasharray="9.47 9.47"/>
<path d="M74.07 747.16L79.52 749.68C78.53 748.52 77.62 746.76 76.89 744.33" stroke="#194DD2" stroke-miterlimit="10"/>
<path d="M75.52 736.97C75.32 734.93 75.21 732.67 75.21 730.16V725.73" stroke="#194DD2" stroke-miterlimit="10" stroke-dasharray="7.5 7.5"/>
<path d="M83.33 629.22C83.82 631.18 84.52 633.01 85.48 634.81H91.48" stroke="#194DD2" stroke-miterlimit="10"/>
<path d="M91.7 634.8H97.7V645.8H91.7" stroke="#194DD2" stroke-miterlimit="10"/>
<path d="M91.48 645.8H85.48C84.38 647.65 83.66 649.48 83.19 651.33" stroke="#194DD2" stroke-miterlimit="10"/>
<path d="M82.2 664.29C81 680.03 67.94 693.27 52.08 693.27C35.33 693.27 21.77 678.68 21.77 661.93V658.32" stroke="#194DD2" stroke-miterlimit="10" stroke-dasharray="13.03 13.03"/>
<path d="M21.77 651.8V645.8H17.97V634.8H21.77V628.8" stroke="#194DD2" stroke-miterlimit="10"/>
<path d="M21.89 615.93C23.27 600.47 36.25 588.36 52.08 588.36C68.73 588.36 82.29 601.92 82.29 618.67C82.29 620.15 82.33 621.54 82.41 622.85" stroke="#194DD2" stroke-miterlimit="10" stroke-dasharray="12.87 12.87"/>
<path d="M71.97 651.36C72.43 649.41 73.13 647.6 74.17 645.8H68.17" stroke="#194DD2" stroke-miterlimit="10"/>
<path d="M58.44 645.8H43.84" stroke="#194DD2" stroke-miterlimit="10" stroke-dasharray="9.73 9.73"/>
<path d="M38.97 645.8H32.97V651.8" stroke="#194DD2" stroke-miterlimit="10"/>
<path d="M33.02 663.33C33.73 673.26 41.97 681.04 52.08 681.04C62.56 681.04 71.09 672.51 71.09 661.93C71.09 660.18 71.12 658.57 71.2 657.07" stroke="#194DD2" stroke-miterlimit="10" stroke-dasharray="11.53 11.53"/>
<path d="M32.97 628.8V634.8H38.97" stroke="#194DD2" stroke-miterlimit="10"/>
<path d="M48.7 634.8H63.31" stroke="#194DD2" stroke-miterlimit="10" stroke-dasharray="9.73 9.73"/>
<path d="M68.17 634.8H74.17C73.13 633.05 72.44 631.18 71.98 629.24" stroke="#194DD2" stroke-miterlimit="10"/>
<path d="M71.07 617.77C70.6 607.61 62.26 599.56 52.08 599.56C41.5 599.56 32.97 608.09 32.97 618.67V623.04" stroke="#194DD2" stroke-miterlimit="10" stroke-dasharray="11.53 11.53"/>
<path d="M25.82 518.32L21.05 514.68V503.58H27.05" stroke="#194DD2" stroke-miterlimit="10"/>
<path d="M39.98 503.58H85.24" stroke="#194DD2" stroke-miterlimit="10" stroke-dasharray="12.93 12.93"/>
<path d="M91.7 503.58H97.7V514.68H91.7" stroke="#194DD2" stroke-miterlimit="10"/>
<path d="M82.29 514.68H49.33" stroke="#194DD2" stroke-miterlimit="10" stroke-dasharray="9.42 9.42"/>
<path d="M44.62 514.68H38.62L43.39 518.32" stroke="#194DD2" stroke-miterlimit="10"/>
<path d="M53.3 525.89L87.98 552.37" stroke="#194DD2" stroke-miterlimit="10" stroke-dasharray="12.47 12.47"/>
<path d="M92.94 556.15L97.7 559.79V570.89H91.7" stroke="#194DD2" stroke-miterlimit="10"/>
<path d="M78.77 570.89H33.52" stroke="#194DD2" stroke-miterlimit="10" stroke-dasharray="12.93 12.93"/>
<path d="M27.05 570.89H21.05V559.79H27.05" stroke="#194DD2" stroke-miterlimit="10"/>
<path d="M36.47 559.79H69.43" stroke="#194DD2" stroke-miterlimit="10" stroke-dasharray="9.42 9.42"/>
<path d="M74.13 559.79H80.13L75.36 556.15" stroke="#194DD2" stroke-miterlimit="10"/>
<path d="M65.46 548.58L30.77 522.11" stroke="#194DD2" stroke-miterlimit="10" stroke-dasharray="12.47 12.47"/>
<path d="M27.05 437.62H21.05V426.42H27.05" stroke="#194DD2" stroke-miterlimit="10"/>
<path d="M39.98 426.42H85.24" stroke="#194DD2" stroke-miterlimit="10" stroke-dasharray="12.93 12.93"/>
<path d="M91.7 426.42H97.7V437.62H91.7" stroke="#194DD2" stroke-miterlimit="10"/>
<path d="M74.21 437.62H68.21C69.06 439.39 69.83 441.19 70.49 443.16" stroke="#194DD2" stroke-miterlimit="10"/>
<path d="M72.46 454.27C72.5 455.19 72.53 456.14 72.53 457.14C72.53 476.77 65.34 487.14 43.96 487.14C41.92 487.14 37.4 486.93 32.62 486.54" stroke="#194DD2" stroke-miterlimit="10" stroke-dasharray="11.32 11.32"/>
<path d="M26.99 485.98C24.8 485.72 22.74 485.42 21.05 485.09V473.89C23.01 474.2 25 474.47 26.99 474.71" stroke="#194DD2" stroke-miterlimit="10"/>
<path d="M39.25 475.75C41.87 475.88 44.47 475.94 47.04 475.94C58.03 475.94 61.53 468.75 61.53 456.73C61.53 454.22 61.18 451.76 60.58 449.2" stroke="#194DD2" stroke-miterlimit="10" stroke-dasharray="12.3 12.3"/>
<path d="M58.88 443.29C58.29 441.5 57.63 439.63 56.91 437.62H50.91" stroke="#194DD2" stroke-miterlimit="10"/>
<path d="M42.96 437.62H31.03" stroke="#194DD2" stroke-miterlimit="10" stroke-dasharray="7.95 7.95"/>
<path d="M80.5 392.61H86.5V386.61" stroke="#194DD2" stroke-miterlimit="10"/>
<path d="M86.5 374.85V357.22" stroke="#194DD2" stroke-miterlimit="10" stroke-dasharray="11.76 11.76"/>
<path d="M86.5 351.34V345.34H97.7V351.34" stroke="#194DD2" stroke-miterlimit="10"/>
<path d="M97.7 366.83V390.07" stroke="#194DD2" stroke-miterlimit="10" stroke-dasharray="15.49 15.49"/>
<path d="M97.7 397.81V403.81H91.7" stroke="#194DD2" stroke-miterlimit="10"/>
<path d="M78.77 403.81H33.52" stroke="#194DD2" stroke-miterlimit="10" stroke-dasharray="12.93 12.93"/>
<path d="M27.05 403.81H21.05V397.81" stroke="#194DD2" stroke-miterlimit="10"/>
<path d="M21.05 383.83V362.86" stroke="#194DD2" stroke-miterlimit="10" stroke-dasharray="13.98 13.98"/>
<path d="M21.05 355.86V349.86H32.35V355.86" stroke="#194DD2" stroke-miterlimit="10"/>
<path d="M32.35 366.11V381.49" stroke="#194DD2" stroke-miterlimit="10" stroke-dasharray="10.25 10.25"/>
<path d="M32.35 386.61V392.61H38.35" stroke="#194DD2" stroke-miterlimit="10"/>
<path d="M49.58 392.61H55.58C54.53 390.79 53.84 388.93 53.39 387.04" stroke="#194DD2" stroke-miterlimit="10"/>
<path d="M52.63 380.52C52.61 379.73 52.6 378.93 52.6 378.12V370.66" stroke="#194DD2" stroke-miterlimit="10" stroke-dasharray="6.57 6.57"/>
<path d="M52.6 367.37V361.37H64V367.37" stroke="#194DD2" stroke-miterlimit="10"/>
<path d="M64 373.94V378.12C64 380.01 64.08 381.89 64.31 383.76" stroke="#194DD2" stroke-miterlimit="10" stroke-dasharray="6.56 6.56"/>
<path d="M64.88 387C65.33 388.91 66 390.78 66.98 392.61H72.98" stroke="#194DD2" stroke-miterlimit="10"/>
<path d="M27 266.24C28.2 264.63 29.5 263.12 30.92 261.7L39.35 268.89C37.92 270.27 36.63 271.81 35.49 273.48" stroke="#194DD2" stroke-miterlimit="10"/>
<path d="M30.77 284.68C30.32 286.82 30.09 289.04 30.09 291.29C30.09 308.35 42.32 321.5 59.58 321.5C76.12 321.5 88.25 307.22 88.25 291.19C88.25 285.59 86.79 280.35 84.2 275.85" stroke="#194DD2" stroke-miterlimit="10" stroke-dasharray="12.23 12.23"/>
<path d="M80.64 270.9C79.31 269.41 77.84 268.05 76.23 266.84L85.58 259.96C87.07 261.29 88.47 262.73 89.75 264.27" stroke="#194DD2" stroke-miterlimit="10"/>
<path d="M96.11 274.72C98.27 279.83 99.45 285.45 99.45 291.3C99.45 314.52 81.37 332.5 58.25 332.5C35.64 332.5 18.79 313.18 18.79 291.19C18.79 284.05 20.57 277.31 23.71 271.43" stroke="#194DD2" stroke-miterlimit="10" stroke-dasharray="12.29 12.29"/>
<path d="M91.7 232.31H97.7V243.51H91.7" stroke="#194DD2" stroke-miterlimit="10"/>
<path d="M78.77 243.51H33.52" stroke="#194DD2" stroke-miterlimit="10" stroke-dasharray="12.93 12.93"/>
<path d="M27.05 243.51H21.05V232.31H27.05" stroke="#194DD2" stroke-miterlimit="10"/>
<path d="M33.57 232.31H43.34" stroke="#194DD2" stroke-miterlimit="10" stroke-dasharray="6.51 6.51"/>
<path d="M46.6 232.31H52.6V227.17C52.6 226.88 52.6 226.6 52.59 226.31" stroke="#194DD2" stroke-miterlimit="10"/>
<path d="M49.46 212.68L31.87 200.73" stroke="#194DD2" stroke-miterlimit="10" stroke-dasharray="14.17 14.17"/>
<path d="M26.01 196.74L21.05 193.37V187.37" stroke="#194DD2" stroke-miterlimit="10"/>
<path d="M21.05 185.91V179.91L25.97 183.34" stroke="#194DD2" stroke-miterlimit="10"/>
<path d="M34.71 189.45L47.83 198.6" stroke="#194DD2" stroke-miterlimit="10" stroke-dasharray="10.66 10.66"/>
<path d="M52.2 201.65L57.12 205.08L62.11 201.76" stroke="#194DD2" stroke-miterlimit="10"/>
<path d="M70.8 195.96L77.77 191.31C80.28 189.64 82.06 188.09 83.34 186.64" stroke="#194DD2" stroke-miterlimit="10" stroke-dasharray="10.44 10.44"/>
<path d="M85.94 182.16C86.31 180.93 86.4 179.78 86.4 178.67C86.4 177.85 86.3 177.03 86.3 176.2H97.7C97.7 178.32 97.77 180.3 97.7 182.2" stroke="#194DD2" stroke-miterlimit="10"/>
<path d="M91.84 195.32C90.23 196.84 88.18 198.41 85.58 200.05L73.41 207.65" stroke="#194DD2" stroke-miterlimit="10" stroke-dasharray="14.8 14.8"/>
<path d="M67.14 211.57L62.05 214.75C62.86 216.63 63.35 218.57 63.64 220.52" stroke="#194DD2" stroke-miterlimit="10"/>
<path d="M64 226.31V232.31H70" stroke="#194DD2" stroke-miterlimit="10"/>
<path d="M77.24 232.31H88.09" stroke="#194DD2" stroke-miterlimit="10" stroke-dasharray="7.23 7.23"/>
<path d="M25.82 105.15L21.05 101.51V90.41H27.05" stroke="#194DD2" stroke-miterlimit="10"/>
<path d="M39.98 90.41H85.24" stroke="#194DD2" stroke-miterlimit="10" stroke-dasharray="12.93 12.93"/>
<path d="M91.7 90.41H97.7V101.51H91.7" stroke="#194DD2" stroke-miterlimit="10"/>
<path d="M82.29 101.51H49.33" stroke="#194DD2" stroke-miterlimit="10" stroke-dasharray="9.42 9.42"/>
<path d="M44.62 101.51H38.62L43.39 105.15" stroke="#194DD2" stroke-miterlimit="10"/>
<path d="M53.3 112.71L87.98 139.19" stroke="#194DD2" stroke-miterlimit="10" stroke-dasharray="12.47 12.47"/>
<path d="M92.94 142.98L97.7 146.62V157.71H91.7" stroke="#194DD2" stroke-miterlimit="10"/>
<path d="M78.77 157.71H33.52" stroke="#194DD2" stroke-miterlimit="10" stroke-dasharray="12.93 12.93"/>
<path d="M27.05 157.71H21.05V146.62H27.05" stroke="#194DD2" stroke-miterlimit="10"/>
<path d="M36.47 146.62H69.43" stroke="#194DD2" stroke-miterlimit="10" stroke-dasharray="9.42 9.42"/>
<path d="M74.13 146.62H80.13L75.36 142.98" stroke="#194DD2" stroke-miterlimit="10"/>
<path d="M65.46 135.41L30.77 108.93" stroke="#194DD2" stroke-miterlimit="10" stroke-dasharray="12.47 12.47"/>
<path d="M25.82 15.24L21.05 11.6V0.5H27.05" stroke="#194DD2" stroke-miterlimit="10"/>
<path d="M39.98 0.5H85.24" stroke="#194DD2" stroke-miterlimit="10" stroke-dasharray="12.93 12.93"/>
<path d="M91.7 0.5H97.7V11.6H91.7" stroke="#194DD2" stroke-miterlimit="10"/>
<path d="M82.29 11.6H49.33" stroke="#194DD2" stroke-miterlimit="10" stroke-dasharray="9.42 9.42"/>
<path d="M44.62 11.6H38.62L43.39 15.24" stroke="#194DD2" stroke-miterlimit="10"/>
<path d="M53.3 22.8L87.98 49.28" stroke="#194DD2" stroke-miterlimit="10" stroke-dasharray="12.47 12.47"/>
<path d="M92.94 53.06L97.7 56.71V67.8H91.7" stroke="#194DD2" stroke-miterlimit="10"/>
<path d="M78.77 67.8H33.52" stroke="#194DD2" stroke-miterlimit="10" stroke-dasharray="12.93 12.93"/>
<path d="M27.05 67.8H21.05V56.71H27.05" stroke="#194DD2" stroke-miterlimit="10"/>
<path d="M36.47 56.71H69.43" stroke="#194DD2" stroke-miterlimit="10" stroke-dasharray="9.42 9.42"/>
<path d="M74.13 56.71H80.13L75.36 53.06" stroke="#194DD2" stroke-miterlimit="10"/>
<path d="M65.46 45.5L30.77 19.02" stroke="#194DD2" stroke-miterlimit="10" stroke-dasharray="12.47 12.47"/>
<path d="M6.06 39.65C4.49 41.12 2.32 41.5 0.5 41.5V53.32C2.32 53.11 4.31 52.62 6.24 51.67" stroke="#194DD2" stroke-miterlimit="10"/>
<path d="M14.61 40.66C15.12 38.62 15.4 36.28 15.4 33.58C15.4 27.4 13.89 23.05 11.66 20.04" stroke="#194DD2" stroke-miterlimit="10" stroke-dasharray="14.28 14.28"/>
<path d="M6.24 15.51C4.32 14.56 2.32 14.06 0.5 13.86V25.68C2.32 25.68 4.49 26.06 6.06 27.53" stroke="#194DD2" stroke-miterlimit="10"/>
<path d="M579.58 712.01V718.01H568.38V706.2H562.38" stroke="#194DD2" stroke-miterlimit="10"/>
<path d="M552.9 706.2H519.73" stroke="#194DD2" stroke-miterlimit="10" stroke-dasharray="9.48 9.48"/>
<path d="M514.99 706.2H508.99V718.01H497.79V712.01" stroke="#194DD2" stroke-miterlimit="10"/>
<path d="M497.79 701V695H509.09C510.36 693.45 511.57 691.86 512.73 690.23" stroke="#194DD2" stroke-miterlimit="10"/>
<path d="M517.79 682.25C523 673.04 526.79 662.75 529.42 651.39" stroke="#194DD2" stroke-miterlimit="10" stroke-dasharray="9.46 9.46"/>
<path d="M530.42 646.75C530.81 644.81 531.16 642.84 531.49 640.85H523.06L520.75 635.31" stroke="#194DD2" stroke-miterlimit="10"/>
<path d="M520.65 635.08L518.34 629.54H524.34" stroke="#194DD2" stroke-miterlimit="10"/>
<path d="M538.53 629.54H559.81" stroke="#194DD2" stroke-miterlimit="10" stroke-dasharray="14.19 14.19"/>
<path d="M566.9 629.54H572.9V635.54" stroke="#194DD2" stroke-miterlimit="10"/>
<path d="M572.9 646.23V683.65" stroke="#194DD2" stroke-miterlimit="10" stroke-dasharray="10.69 10.69"/>
<path d="M572.9 689V695H579.58V701" stroke="#194DD2" stroke-miterlimit="10"/>
<path d="M555.7 695H561.7V689" stroke="#194DD2" stroke-miterlimit="10"/>
<path d="M561.7 674.95V653.87" stroke="#194DD2" stroke-miterlimit="10" stroke-dasharray="14.05 14.05"/>
<path d="M561.7 646.85V640.85H555.7" stroke="#194DD2" stroke-miterlimit="10"/>
<path d="M548.69 640.85H542.69C542.47 642.75 542.17 644.73 541.79 646.78" stroke="#194DD2" stroke-miterlimit="10"/>
<path d="M538.12 661.72C535.89 669.01 533.01 676.43 529.65 683.18" stroke="#194DD2" stroke-miterlimit="10" stroke-dasharray="15.39 15.39"/>
<path d="M525.99 689.94C524.94 691.71 523.87 693.4 522.76 694.99H528.76" stroke="#194DD2" stroke-miterlimit="10"/>
<path d="M537.74 695H551.21" stroke="#194DD2" stroke-miterlimit="10" stroke-dasharray="8.98 8.98"/>
<path d="M648.58 634.31L652.23 629.54H663.32V635.54" stroke="#194DD2" stroke-miterlimit="10"/>
<path d="M663.32 648.47V693.73" stroke="#194DD2" stroke-miterlimit="10" stroke-dasharray="12.93 12.93"/>
<path d="M663.32 700.2V706.2H652.23V700.2" stroke="#194DD2" stroke-miterlimit="10"/>
<path d="M652.23 690.78V657.82" stroke="#194DD2" stroke-miterlimit="10" stroke-dasharray="9.42 9.42"/>
<path d="M652.23 653.11V647.11L648.58 651.88" stroke="#194DD2" stroke-miterlimit="10"/>
<path d="M641.02 661.79L614.54 696.47" stroke="#194DD2" stroke-miterlimit="10" stroke-dasharray="12.47 12.47"/>
<path d="M610.76 701.43L607.12 706.2H596.02V700.2" stroke="#194DD2" stroke-miterlimit="10"/>
<path d="M596.02 687.27V642.01" stroke="#194DD2" stroke-miterlimit="10" stroke-dasharray="12.93 12.93"/>
<path d="M596.02 635.54V629.54H607.12V635.54" stroke="#194DD2" stroke-miterlimit="10"/>
<path d="M607.12 644.96V677.92" stroke="#194DD2" stroke-miterlimit="10" stroke-dasharray="9.42 9.42"/>
<path d="M607.12 682.63V688.63L610.76 683.86" stroke="#194DD2" stroke-miterlimit="10"/>
<path d="M618.32 673.95L644.8 639.27" stroke="#194DD2" stroke-miterlimit="10" stroke-dasharray="12.47 12.47"/>
<path d="M696.21 643.79C694.74 644.95 693.29 646.3 691.79 647.84L684.6 639.41C686.06 637.95 687.5 636.57 688.98 635.31" stroke="#194DD2" stroke-miterlimit="10"/>
<path d="M698.25 629.58C702.02 628.11 706.52 627.28 712.34 627.28C733.51 627.28 739.88 642.08 739.88 650.91C739.88 652.88 739.72 654.64 739.38 656.21" stroke="#194DD2" stroke-miterlimit="10" stroke-dasharray="10.96 10.96"/>
<path d="M737.27 661.25C736.21 662.81 734.8 664.16 732.99 665.41C734.8 666.47 736.41 667.65 737.8 668.98" stroke="#194DD2" stroke-miterlimit="10"/>
<path d="M743.4 680.6C743.52 681.61 743.58 682.68 743.58 683.8C743.58 696.23 735.15 707.95 712.34 707.95C704.51 707.95 695.85 705.68 688.66 701.75" stroke="#194DD2" stroke-miterlimit="10" stroke-dasharray="13.18 13.18"/>
<path d="M683.14 698.14C681.52 696.88 680.04 695.52 678.74 694.07L685.62 684.72C686.79 686.28 688.2 687.71 689.81 689" stroke="#194DD2" stroke-miterlimit="10"/>
<path d="M699.7 694.46C703.79 695.94 708.17 696.75 712.34 696.75C727.34 696.75 732.48 690.69 732.48 683.7C732.48 674.76 724.67 672.5 717.27 672.5H716.2" stroke="#194DD2" stroke-miterlimit="10" stroke-dasharray="11.34 11.34"/>
<path d="M710.53 672.49H704.53V661.09H710.53" stroke="#194DD2" stroke-miterlimit="10"/>
<path d="M723.21 659.95C726.63 658.4 728.67 655.26 728.67 650.5C728.67 642.07 719.01 638.58 712.33 638.58C708 638.58 704.62 639.22 701.67 640.47" stroke="#194DD2" stroke-miterlimit="10" stroke-dasharray="12.83 12.83"/>
<path d="M782.37 643.06L784.98 637.66L780.77 628.21H786.77" stroke="#194DD2" stroke-miterlimit="10"/>
<path d="M787.1 628.21H793.1L795.67 633.63" stroke="#194DD2" stroke-miterlimit="10"/>
<path d="M800.2 643.22L825.16 695.98" stroke="#194DD2" stroke-miterlimit="10" stroke-dasharray="10.61 10.61"/>
<path d="M827.42 700.77L829.99 706.2H823.99" stroke="#194DD2" stroke-miterlimit="10"/>
<path d="M823.46 706.2H817.46L814.99 700.72" stroke="#194DD2" stroke-miterlimit="10"/>
<path d="M814.88 700.47L812.42 695H806.42" stroke="#194DD2" stroke-miterlimit="10"/>
<path d="M792.86 695H789.09C782.05 695 776.66 696.12 772.81 697.64" stroke="#194DD2" stroke-miterlimit="10" stroke-dasharray="13.56 13.56"/>
<path d="M767.05 701.11C766.53 701.62 766.14 702.13 765.88 702.6L763.93 706.2H757.93" stroke="#194DD2" stroke-miterlimit="10"/>
<path d="M757.8 706.2H751.8L754.41 700.8" stroke="#194DD2" stroke-miterlimit="10"/>
<path d="M760 689.25L779.57 648.83" stroke="#194DD2" stroke-miterlimit="10" stroke-dasharray="12.83 12.83"/>
<path d="M801.38 683.69H807.38L804.63 678.36" stroke="#194DD2" stroke-miterlimit="10"/>
<path d="M800.88 671.13L795.27 660.27" stroke="#194DD2" stroke-miterlimit="10" stroke-dasharray="8.15 8.15"/>
<path d="M793.39 656.66L790.64 651.33L788.12 656.77" stroke="#194DD2" stroke-miterlimit="10"/>
<path d="M784.15 665.37L778.19 678.27" stroke="#194DD2" stroke-miterlimit="10" stroke-dasharray="9.47 9.47"/>
<path d="M776.2 682.56L773.68 688.01C774.84 687.02 776.6 686.11 779.03 685.38" stroke="#194DD2" stroke-miterlimit="10"/>
<path d="M786.39 684.01C788.43 683.81 790.69 683.7 793.2 683.7H797.63" stroke="#194DD2" stroke-miterlimit="10" stroke-dasharray="7.5 7.5"/>
<path d="M896.94 634.31L900.58 629.54H911.68V635.54" stroke="#194DD2" stroke-miterlimit="10"/>
<path d="M911.68 648.47V693.73" stroke="#194DD2" stroke-miterlimit="10" stroke-dasharray="12.93 12.93"/>
<path d="M911.68 700.2V706.2H900.58V700.2" stroke="#194DD2" stroke-miterlimit="10"/>
<path d="M900.58 690.78V657.82" stroke="#194DD2" stroke-miterlimit="10" stroke-dasharray="9.42 9.42"/>
<path d="M900.58 653.11V647.11L896.94 651.88" stroke="#194DD2" stroke-miterlimit="10"/>
<path d="M889.38 661.79L862.9 696.47" stroke="#194DD2" stroke-miterlimit="10" stroke-dasharray="12.47 12.47"/>
<path d="M859.11 701.43L855.47 706.2H844.38V700.2" stroke="#194DD2" stroke-miterlimit="10"/>
<path d="M844.38 687.27V642.01" stroke="#194DD2" stroke-miterlimit="10" stroke-dasharray="12.93 12.93"/>
<path d="M844.38 635.54V629.54H855.47V635.54" stroke="#194DD2" stroke-miterlimit="10"/>
<path d="M855.47 644.96V677.92" stroke="#194DD2" stroke-miterlimit="10" stroke-dasharray="9.42 9.42"/>
<path d="M855.47 682.63V688.63L859.11 683.86" stroke="#194DD2" stroke-miterlimit="10"/>
<path d="M866.68 673.95L893.16 639.27" stroke="#194DD2" stroke-miterlimit="10" stroke-dasharray="12.47 12.47"/>
<path d="M872.53 614.55C871.06 612.98 870.68 610.81 870.68 608.99H858.86C859.07 610.81 859.56 612.8 860.51 614.73" stroke="#194DD2" stroke-miterlimit="10"/>
<path d="M871.52 623.1C873.56 623.61 875.9 623.89 878.6 623.89C884.78 623.89 889.13 622.38 892.14 620.15" stroke="#194DD2" stroke-miterlimit="10" stroke-dasharray="14.28 14.28"/>
<path d="M896.67 614.73C897.62 612.81 898.12 610.81 898.32 608.99H886.5C886.5 610.81 886.12 612.98 884.65 614.55" stroke="#194DD2" stroke-miterlimit="10"/>
<path d="M945.38 700.2V706.2H934.29V700.2" stroke="#194DD2" stroke-miterlimit="10"/>
<path d="M934.29 687.27V642.01" stroke="#194DD2" stroke-miterlimit="10" stroke-dasharray="12.93 12.93"/>
<path d="M934.29 635.54V629.54H945.38V635.54" stroke="#194DD2" stroke-miterlimit="10"/>
<path d="M945.38 642.02V651.75" stroke="#194DD2" stroke-miterlimit="10" stroke-dasharray="6.48 6.48"/>
<path d="M945.38 654.99V660.99C947.21 660.08 949.14 659.52 951.09 659.23" stroke="#194DD2" stroke-miterlimit="10"/>
<path d="M962.31 659.54C967.71 660.16 974.49 661.05 979.11 661.17" stroke="#194DD2" stroke-miterlimit="10" stroke-dasharray="11.25 11.25"/>
<path d="M984.72 660.84C986.68 660.54 988.68 660.03 990.49 659.24V653.24" stroke="#194DD2" stroke-miterlimit="10"/>
<path d="M990.49 635.54V629.54H1001.69V635.54" stroke="#194DD2" stroke-miterlimit="10"/>
<path d="M1001.69 648.47V693.73" stroke="#194DD2" stroke-miterlimit="10" stroke-dasharray="12.93 12.93"/>
<path d="M1001.69 700.2V706.2H990.49V700.2" stroke="#194DD2" stroke-miterlimit="10"/>
<path d="M990.49 692.31V680.48" stroke="#194DD2" stroke-miterlimit="10" stroke-dasharray="7.89 7.89"/>
<path d="M990.49 676.54V670.54C988.68 671.33 986.68 671.84 984.72 672.14" stroke="#194DD2" stroke-miterlimit="10"/>
<path d="M973.5 672.1C967.55 671.54 960.62 670.54 956.71 670.29" stroke="#194DD2" stroke-miterlimit="10" stroke-dasharray="11.25 11.25"/>
<path d="M951.1 670.52C949.14 670.82 947.21 671.37 945.39 672.28V678.28" stroke="#194DD2" stroke-miterlimit="10"/>
<path d="M945.38 685.59V696.55" stroke="#194DD2" stroke-miterlimit="10" stroke-dasharray="7.3 7.3"/>
<path d="M1035.5 689V695H1041.5" stroke="#194DD2" stroke-miterlimit="10"/>
<path d="M1053.26 695H1070.89" stroke="#194DD2" stroke-miterlimit="10" stroke-dasharray="11.76 11.76"/>
<path d="M1076.77 695H1082.77V706.2H1076.77" stroke="#194DD2" stroke-miterlimit="10"/>
<path d="M1061.28 706.2H1038.04" stroke="#194DD2" stroke-miterlimit="10" stroke-dasharray="15.49 15.49"/>
<path d="M1030.3 706.2H1024.3V700.2" stroke="#194DD2" stroke-miterlimit="10"/>
<path d="M1024.3 687.27V642.01" stroke="#194DD2" stroke-miterlimit="10" stroke-dasharray="12.93 12.93"/>
<path d="M1024.3 635.54V629.54H1030.3" stroke="#194DD2" stroke-miterlimit="10"/>
<path d="M1044.28 629.54H1065.25" stroke="#194DD2" stroke-miterlimit="10" stroke-dasharray="13.98 13.98"/>
<path d="M1072.25 629.54H1078.25V640.85H1072.25" stroke="#194DD2" stroke-miterlimit="10"/>
<path d="M1062 640.85H1046.62" stroke="#194DD2" stroke-miterlimit="10" stroke-dasharray="10.25 10.25"/>
<path d="M1041.5 640.85H1035.5V646.85" stroke="#194DD2" stroke-miterlimit="10"/>
<path d="M1035.5 658.07V664.07C1037.32 663.02 1039.18 662.33 1041.07 661.88" stroke="#194DD2" stroke-miterlimit="10"/>
<path d="M1047.59 661.12C1048.38 661.1 1049.18 661.09 1049.99 661.09H1057.45" stroke="#194DD2" stroke-miterlimit="10" stroke-dasharray="6.57 6.57"/>
<path d="M1060.74 661.09H1066.74V672.49H1060.74" stroke="#194DD2" stroke-miterlimit="10"/>
<path d="M1054.17 672.49H1049.99C1048.1 672.49 1046.22 672.57 1044.35 672.8" stroke="#194DD2" stroke-miterlimit="10" stroke-dasharray="6.56 6.56"/>
<path d="M1041.11 673.38C1039.2 673.83 1037.33 674.5 1035.5 675.48V681.48" stroke="#194DD2" stroke-miterlimit="10"/>
<path d="M1111.95 700.2V706.2H1100.75V700.2" stroke="#194DD2" stroke-miterlimit="10"/>
<path d="M1100.75 687.27V642.01" stroke="#194DD2" stroke-miterlimit="10" stroke-dasharray="12.93 12.93"/>
<path d="M1100.75 635.54V629.54H1106.75" stroke="#194DD2" stroke-miterlimit="10"/>
<path d="M1118.29 629.54H1140.1C1153.66 629.54 1162.5 637.76 1162.5 651.43C1162.5 664.99 1153.66 673.62 1140.1 673.62H1126.54C1125.45 673.62 1124.35 673.65 1123.25 673.72" stroke="#194DD2" stroke-miterlimit="10" stroke-dasharray="11.54 11.54"/>
<path d="M1117.55 674.58C1115.64 675.05 1113.76 675.74 1111.95 676.7V682.7" stroke="#194DD2" stroke-miterlimit="10"/>
<path d="M1117.95 640.85H1111.95V646.85" stroke="#194DD2" stroke-miterlimit="10"/>
<path d="M1111.95 659.4V665.4C1113.76 664.35 1115.62 663.65 1117.51 663.19" stroke="#194DD2" stroke-miterlimit="10"/>
<path d="M1128.97 662.32H1140.1C1147.4 662.32 1151.4 658.83 1151.4 651.43C1151.4 643.72 1147.5 640.85 1140.1 640.85H1123.71" stroke="#194DD2" stroke-miterlimit="10" stroke-dasharray="11.53 11.53"/>
</g>
<defs>
<clipPath id="clip0_10_25">
<rect width="1163" height="908.94" fill="white"/>
</clipPath>
</defs>
</svg>
